<svg width="22" height="28" viewBox="0 0 22 28" fill="none" xmlns="http://www.w3.org/2000/svg">
<rect width="22" height="28" fill="#010E1E"/>
<path d="M-1799 -126H277V-142H-1799V-126ZM271 -132V3044H287V-132H271ZM277 3038H-1799V3054H277V3038ZM-1793 3044V-132H-1809V3044H-1793ZM-1799 3038C-1795.69 3038 -1793 3040.69 -1793 3044H-1809C-1809 3049.52 -1804.52 3054 -1799 3054V3038ZM271 3044C271 3040.69 273.686 3038 277 3038V3054C282.523 3054 287 3049.52 287 3044H271ZM277 -126C273.686 -126 271 -128.686 271 -132H287C287 -137.523 282.523 -142 277 -142V-126ZM-1799 -142C-1804.52 -142 -1809 -137.523 -1809 -132H-1793C-1793 -128.687 -1795.69 -126 -1799 -126V-142Z" fill="white" fill-opacity="0.1"/>
<g clip-path="url(#clip0_0_1)">
<rect width="1920" height="1000" transform="translate(-1721 -54)" fill="#0A1F38"/>
<circle cx="11" cy="14" r="28" fill="#1B2F46"/>
<circle cx="11" cy="6" r="5" stroke="white" stroke-width="2"/>
<path d="M21 28V20C21 17.7909 19.2091 16 17 16H5C2.79086 16 1 17.7909 1 20V28" stroke="white" stroke-width="2"/>
</g>
<defs>
<clipPath id="clip0_0_1">
<rect width="1920" height="1000" fill="white" transform="translate(-1721 -54)"/>
</clipPath>
</defs>
</svg>
