<svg width="154" height="36" viewBox="0 0 154 36" fill="none" xmlns="http://www.w3.org/2000/svg">
<path d="M10.807 17.0372C10.0543 17.2429 9.60763 18.0323 9.80932 18.8003C10.011 19.5683 10.7847 20.0241 11.5374 19.8183L25.8184 15.914C26.5711 15.7082 27.0178 14.9188 26.8161 14.1508C26.6144 13.3828 25.8407 12.9271 25.088 13.1329L10.807 17.0372Z" fill="#B1C909"/>
<path d="M11.0269 23.4366C10.8252 22.6686 11.2719 21.8792 12.0246 21.6734L26.3055 17.7691C27.0582 17.5633 27.8319 18.0191 28.0336 18.7871C28.2353 19.5551 27.7886 20.3445 27.0359 20.5503L12.755 24.4545C12.0022 24.6603 11.2286 24.2046 11.0269 23.4366Z" fill="#B1C909"/>
<path d="M17.1369 25.2448C16.3842 25.4506 15.9375 26.24 16.1392 27.008C16.3409 27.776 17.1146 28.2317 17.8673 28.026L24.3586 26.2513C25.1114 26.0455 25.558 25.2561 25.3564 24.4881C25.1547 23.7201 24.381 23.2643 23.6283 23.4701L17.1369 25.2448Z" fill="#B1C909"/>
<path fill-rule="evenodd" clip-rule="evenodd" d="M32.5004 6.91782L18.8561 0L4.18456 4.01108C1.17372 4.83421 -0.613038 7.99184 0.193712 11.0638L5.62109 31.7305C6.42784 34.8024 9.52261 36.6255 12.5334 35.8024L32.7887 30.2647C35.7995 29.4416 37.5863 26.284 36.7795 23.212L32.5004 6.91782ZM4.91493 6.79224L18.2236 3.15376L19.3719 7.52622C19.9769 9.83021 22.298 11.1975 24.5561 10.5801L30.1398 9.05361L34.0538 23.9572C34.4571 25.4932 33.5637 27.072 32.0583 27.4836L11.8031 33.0212C10.2976 33.4328 8.75026 32.5212 8.34689 30.9853L2.91951 10.3186C2.51613 8.78261 3.40952 7.2038 4.91493 6.79224ZM21.5153 4.56339L26.4708 7.07587L23.8258 7.79899C23.0731 8.00477 22.2994 7.54901 22.0977 6.78101L21.5153 4.56339Z" fill="#B1C909"/>
<path d="M148.266 25.4976C147.257 25.4976 146.272 25.3748 145.308 25.1291C144.345 24.868 143.578 24.5455 143.006 24.1616L144.18 21.5818C144.721 21.935 145.376 22.2268 146.144 22.4571C146.911 22.6721 147.664 22.7796 148.401 22.7796C149.891 22.7796 150.636 22.4034 150.636 21.6509C150.636 21.2977 150.433 21.0443 150.027 20.8908C149.62 20.7372 148.996 20.6067 148.153 20.4992C147.16 20.3456 146.339 20.169 145.692 19.9694C145.045 19.7698 144.481 19.4166 143.999 18.9098C143.532 18.4031 143.299 17.6814 143.299 16.7446C143.299 15.9615 143.517 15.2705 143.954 14.6716C144.405 14.0573 145.053 13.5813 145.895 13.2435C146.753 12.9056 147.762 12.7367 148.92 12.7367C149.778 12.7367 150.629 12.8365 151.472 13.0361C152.329 13.2204 153.037 13.4815 153.594 13.8193L152.42 16.3761C151.351 15.7618 150.185 15.4547 148.92 15.4547C148.168 15.4547 147.604 15.5622 147.227 15.7772C146.851 15.9922 146.663 16.2686 146.663 16.6064C146.663 16.9903 146.866 17.2591 147.272 17.4126C147.679 17.5662 148.326 17.7121 149.214 17.8503C150.207 18.0192 151.02 18.2035 151.652 18.4031C152.284 18.5874 152.834 18.9329 153.3 19.4396C153.767 19.9464 154 20.6528 154 21.5588C154 22.3266 153.774 23.0099 153.323 23.6088C152.871 24.2077 152.209 24.6761 151.336 25.0139C150.478 25.3364 149.455 25.4976 148.266 25.4976Z" fill="#B1C909"/>
<path d="M136.056 22.6183C136.688 22.6183 137.245 22.5262 137.726 22.3419C138.223 22.1423 138.682 21.8352 139.103 21.4206L140.977 23.4936C139.833 24.8296 138.163 25.4976 135.965 25.4976C134.596 25.4976 133.384 25.2289 132.331 24.6914C131.277 24.1386 130.464 23.3785 129.892 22.411C129.32 21.4436 129.035 20.3456 129.035 19.1172C129.035 17.904 129.313 16.8137 129.87 15.8463C130.442 14.8635 131.217 14.1034 132.195 13.5659C133.188 13.0131 134.302 12.7367 135.536 12.7367C136.695 12.7367 137.749 12.9901 138.697 13.4968C139.645 13.9882 140.398 14.71 140.954 15.662C141.526 16.5988 141.812 17.7121 141.812 19.002L132.827 20.7756C133.083 21.3899 133.482 21.8505 134.024 22.1577C134.581 22.4648 135.258 22.6183 136.056 22.6183ZM135.536 15.4547C134.648 15.4547 133.926 15.7465 133.369 16.33C132.812 16.9136 132.519 17.7197 132.489 18.7486L138.403 17.5739C138.238 16.9289 137.899 16.4145 137.388 16.0306C136.876 15.6467 136.259 15.4547 135.536 15.4547Z" fill="#B1C909"/>
<path d="M128.323 24.7144C127.977 24.9755 127.548 25.1751 127.036 25.3133C126.54 25.4362 126.021 25.4976 125.479 25.4976C124.019 25.4976 122.898 25.1214 122.115 24.3689C121.332 23.6165 120.941 22.5108 120.941 21.052V10.1799H124.463V13.1974H127.465V15.9615H124.463V21.006C124.463 21.5281 124.591 21.935 124.847 22.2268C125.102 22.5032 125.471 22.6414 125.953 22.6414C126.495 22.6414 126.976 22.4878 127.398 22.1807L128.323 24.7144Z" fill="#B1C909"/>
<path d="M111.995 25.4976C110.716 25.4976 109.564 25.2289 108.541 24.6914C107.532 24.1386 106.742 23.3785 106.17 22.411C105.598 21.4436 105.312 20.3456 105.312 19.1172C105.312 17.8887 105.598 16.7907 106.17 15.8233C106.742 14.8558 107.532 14.1034 108.541 13.5659C109.564 13.0131 110.716 12.7367 111.995 12.7367C113.274 12.7367 114.418 13.0131 115.426 13.5659C116.435 14.1034 117.225 14.8558 117.797 15.8233C118.369 16.7907 118.655 17.8887 118.655 19.1172C118.655 20.3456 118.369 21.4436 117.797 22.411C117.225 23.3785 116.435 24.1386 115.426 24.6914C114.418 25.2289 113.274 25.4976 111.995 25.4976ZM111.995 22.5492C112.898 22.5492 113.635 22.2421 114.207 21.6279C114.794 20.9983 115.088 20.1614 115.088 19.1172C115.088 18.0729 114.794 17.2437 114.207 16.6295C113.635 15.9999 112.898 15.6851 111.995 15.6851C111.092 15.6851 110.347 15.9999 109.76 16.6295C109.173 17.2437 108.879 18.0729 108.879 19.1172C108.879 20.1614 109.173 20.9983 109.76 21.6279C110.347 22.2421 111.092 22.5492 111.995 22.5492Z" fill="#B1C909"/>
<path d="M96.8715 8.91304C98.7528 8.91304 100.22 9.5196 101.274 10.7327C102.327 11.9305 102.854 13.6427 102.854 15.8693V25.3133H99.1968V15.9845C99.1968 14.6946 98.8958 13.7272 98.2938 13.0822C97.7068 12.4219 96.8866 12.0917 95.833 12.0917C94.7193 12.0917 93.8238 12.4449 93.1465 13.1513C92.4843 13.8423 92.1532 14.8712 92.1532 16.2379V25.3133H88.4959V9.18944H92.0403V11.1473C92.5821 10.4103 93.2594 9.85743 94.0721 9.48889C94.8848 9.10499 95.818 8.91304 96.8715 8.91304Z" fill="#B1C909"/>
<path d="M84.9849 12.921V23.2403C84.9849 25.513 84.4205 27.2021 83.2917 28.3078C82.163 29.4134 80.5225 29.9662 78.3703 29.9662C77.2264 29.9662 76.1428 29.8203 75.1194 29.5286C74.111 29.2368 73.2606 28.8145 72.5683 28.2617L73.968 25.6819C74.4797 26.1119 75.1043 26.4497 75.8418 26.6954C76.5793 26.9411 77.3242 27.0639 78.0768 27.0639C79.2507 27.0639 80.1086 26.7875 80.6504 26.2347C81.1922 25.6819 81.4631 24.8373 81.4631 23.7009V23.2863C81.0116 23.747 80.4773 24.1002 79.8602 24.3459C79.2432 24.5916 78.581 24.7144 77.8736 24.7144C76.2782 24.7144 75.014 24.2538 74.0809 23.3324C73.1478 22.3957 72.6812 20.9983 72.6812 19.1402V12.921H76.203V18.6104C76.203 20.6221 77.0232 21.6279 78.6637 21.6279C79.5066 21.6279 80.1838 21.3515 80.6955 20.7986C81.2073 20.2305 81.4631 19.3936 81.4631 18.2879V12.921H84.9849Z" fill="#B1C909"/>
<path d="M63.477 8.91304C65.3433 8.91304 66.7957 9.47353 67.8341 10.5945C68.8726 11.7002 69.3919 13.3049 69.3919 15.4087V25.3133H65.7346V15.5238C65.7346 14.3875 65.4411 13.5352 64.8542 12.967C64.2822 12.3835 63.5222 12.0917 62.574 12.0917C61.5355 12.0917 60.7078 12.3989 60.0907 13.0131C59.4736 13.612 59.1651 14.5257 59.1651 15.7542V25.3133H55.5079V15.5238C55.5079 14.3875 55.2369 13.5352 54.6951 12.967C54.1533 12.3835 53.4158 12.0917 52.4827 12.0917C51.4593 12.0917 50.639 12.3989 50.022 13.0131C49.4049 13.612 49.0964 14.5257 49.0964 15.7542V25.3133H45.4391V9.18944H48.9835V11.1704C49.4651 10.4486 50.1048 9.89582 50.9024 9.51192C51.7001 9.11266 52.6182 8.91304 53.6566 8.91304C54.7403 8.91304 55.6885 9.12034 56.5012 9.53496C57.3139 9.93421 57.9385 10.5177 58.375 11.2856C58.9168 10.5177 59.6241 9.93421 60.4971 9.53496C61.385 9.12034 62.3784 8.91304 63.477 8.91304Z" fill="#B1C909"/>
</svg>
